<svg xmlns="http://www.w3.org/2000/svg" version="1.1" xmlns:xlink="http://www.w3.org/1999/xlink" width="200" height="200"><svg xmlns="http://www.w3.org/2000/svg" version="1.1" xmlns:xlink="http://www.w3.org/1999/xlink" viewBox="0 0 200 200"><rect width="200" height="200" fill="url('#gradient')"></rect><defs><linearGradient id="SvgjsLinearGradient1001" gradientTransform="rotate(45 0.5 0.5)"><stop offset="0%" stop-color="#ffffff"></stop><stop offset="100%" stop-color="#ffffff"></stop></linearGradient></defs><g><g fill="#050505" transform="matrix(5.124270225187656,0,0,5.124270225187656,6.556625484773974,136.43781769762842)" stroke="#030303" stroke-width="0.7"><path d="M9.17-4.81L12.58-4.81Q12.51-3.33 11.78-2.19Q11.04-1.05 9.72-0.43Q8.40 0.20 6.70 0.20L6.70 0.20Q3.90 0.20 2.29-1.63Q0.67-3.46 0.67-6.79L0.67-6.79L0.67-7.49Q0.67-9.58 1.40-11.15Q2.13-12.71 3.50-13.57Q4.86-14.42 6.66-14.42L6.66-14.42Q9.25-14.42 10.82-13.06Q12.39-11.70 12.61-9.31L12.61-9.31L9.19-9.31Q9.15-10.61 8.54-11.17Q7.92-11.74 6.66-11.74L6.66-11.74Q5.38-11.74 4.79-10.78Q4.19-9.82 4.16-7.72L4.16-7.72L4.16-6.72Q4.16-4.44 4.73-3.47Q5.30-2.49 6.70-2.49L6.70-2.49Q7.88-2.49 8.51-3.05Q9.13-3.60 9.17-4.81L9.17-4.81ZM17.63-14.22L17.63-2.64L23.59-2.64L23.59 0L14.20 0L14.20-14.22L17.63-14.22ZM32.37-3.78L32.37-3.78Q32.37-4.53 31.84-4.95Q31.31-5.37 29.97-5.82Q28.63-6.27 27.78-6.69L27.78-6.69Q25.02-8.05 25.02-10.42L25.02-10.42Q25.02-11.60 25.71-12.50Q26.40-13.41 27.66-13.91Q28.92-14.41 30.49-14.41L30.49-14.41Q32.02-14.41 33.24-13.87Q34.45-13.32 35.13-12.31Q35.80-11.30 35.80-10L35.80-10L32.38-10Q32.38-10.87 31.85-11.35Q31.32-11.83 30.41-11.83L30.41-11.83Q29.49-11.83 28.96-11.42Q28.43-11.02 28.43-10.39L28.43-10.39Q28.43-9.84 29.01-9.40Q29.60-8.96 31.07-8.48Q32.55-8.01 33.50-7.46L33.50-7.46Q35.80-6.13 35.80-3.80L35.80-3.80Q35.80-1.93 34.39-0.87Q32.99 0.20 30.54 0.20L30.54 0.20Q28.81 0.20 27.41-0.42Q26.01-1.04 25.30-2.12Q24.59-3.20 24.59-4.61L24.59-4.61L28.03-4.61Q28.03-3.47 28.62-2.92Q29.21-2.38 30.54-2.38L30.54-2.38Q31.39-2.38 31.88-2.75Q32.37-3.12 32.37-3.78Z"></path></g></g></svg><style>@media (prefers-color-scheme: light) { :root { filter: none; } }
@media (prefers-color-scheme: dark) { :root { filter: none; } }
</style></svg>